<svg version="1.0" xmlns="http://www.w3.org/2000/svg" width="20pt" height="20pt" viewBox="0 0 1280 1260"><path d="M454 1.9c-2.2 4.3-1.1 9.7 4 19.5 5.5 10.4 6 13.9 3.1 19.5-1.1 2-2.6 7.4-3.5 12-2.6 13.8-8.3 23.8-15.8 27.7-1.6.8-2.8 2.1-2.8 3 0 3 3.5 8.1 10.6 15.4 8.2 8.5 9.9 11.7 8.2 15.5-1 2.3-.8 2.9 2.5 6.3 6.3 6.4 4.2 8.5-3.1 3.2-4.3-3.3-7.9-8.2-9.1-12.7-.9-3.2-3.2-4.1-11.7-4.2-5-.1-6.4.3-8 2-1.8 2-1.8 2.1.1 5.7 1.2 2.3 4.6 5.4 8.6 8.2 3.7 2.5 8.1 6.2 9.8 8.2 1.8 2 6.7 5.9 10.9 8.6 12.8 8.3 16 13.4 14.3 22.6-1.9 10.2-5.5 9.9-17.5-1.5-6.9-6.5-8.7-7.8-9.2-6.4-.6 1.5.6 6.8 2.8 12.4 1.4 3.7-1.5 5.9-9.8 7.4-6.5 1.3-6.8 1.4-4.5 2.7 1.4.7 7 1.6 12.6 2 10.5.8 17.5 3 20.7 6.6 4.2 4.8 5.2 9.3 5.3 24.9.1 10.6.8 18.9 2.4 28.2 1.3 7.3 2.1 13.9 1.7 14.8-.9 2.4-6.1-.7-19.5-11.5-9.5-7.6-14-10.5-27.7-17.1-15.6-7.5-29.3-12.9-33-12.9-3.2 0-8.3-4.1-10.3-8.3-2.4-4.9-4.7-15.2-5.7-25.4-.8-8.5-2.1-10.9-5.3-9.8-2.1.6-2.2 1-1.5 8.6.3 4.3.4 7.9 0 7.9-.3 0-3.2-1.4-6.5-3.1-5-2.6-6.2-2.9-8.1-1.9-2.1 1.1-2 1.4 4.8 8.3 11.9 12.4 10.7 15.8-4.6 12.2-10.7-2.5-21.7-7.3-26.5-11.6-5-4.4-7.3-9.3-8.2-17.9-1-9.4-4-17.7-9.3-25.8-2.6-4-3.5-1-1.7 5.7 1.6 5.7 1.6 6.2.1 8.6-2.9 4.4-7.4 6.5-14.1 6.5-7.6 0-15.9-2.1-23.4-6l-5.8-3-9.6 3.1c-5.4 1.7-9.7 3.5-9.7 4 0 .9 2.9 1.4 12 2.4 3 .3 7.5 1 10 1.5s10.5 1.6 17.8 2.5c19.1 2.2 26.9 6.1 28.7 14.4.9 4.2-.4 5.9-7.1 9.5-3.2 1.7-6 3.9-6.2 4.9-.3 1.6.8 1.7 14.5 1.6 15.9-.2 27.9 1.8 36.3 6.1 6.5 3.3 5.5 4.3-7.1 7.3-17.3 4.1-25.5 12.1-20.2 19.6 1.1 1.6 1.6 4.1 1.5 7.5-.2 5.7.8 8.2 3.2 7.3 2.5-1 7.3-8.3 10.3-15.8l2.8-6.9 6.4-2c10.1-3.2 19.5-4.3 33.1-3.8 11.6.3 12.9.6 17.9 3.3 3.1 1.7 7.4 5.3 10 8.5 8.5 10.2 24.4 25.1 31.1 29 3.6 2.2 13.2 6.9 21.3 10.4 16 7 21.7 10.6 21.7 13.6 0 2.3-4.2 4.7-9.9 5.6-9.1 1.5-9.1 5.3.2 7.5 11.4 2.7 15.7 5.5 15.7 10.4 0 8.4-9 13.7-13.5 8l-2.1-2.6-4.5 3.4c-6.9 5.3-11 7.1-16 7-4.6-.1-4.7 0-5.2 3.7-.7 5.7-3.2 8.5-12.6 14.7-4.7 3.1-11.1 7.9-14.3 10.7-6.6 6-16.7 12.2-22.2 13.7-6.2 1.7-10.2.4-14.9-4.8-2.3-2.6-8.1-8.8-12.9-13.8-4.9-5-8.8-9.6-8.8-10.2 0-1.3-2.4-2.3-5.7-2.3-3.4 0-2.4 2.2 1.6 3.6 2.6.8 3.7 2 4.7 5 .7 2.1 2.6 5 4.2 6.4 1.7 1.4 5.5 4.6 8.5 7.2 3.1 2.7 6 4.8 6.7 4.8 1.8 0 7.1 9.3 6.8 12-.4 3.5-3.5 3.6-15.6.6-13.4-3.4-14.6-3.4-9.9.5 4.3 3.6 4.5 4.3 1.5 6.3-6.4 4.1-27.2 3.9-34.4-.3-8.2-4.8-71.4-17.1-71.4-13.9 0 .4.8.8 1.8.8 4.1 0 24.1 5.2 28.8 7.5 3.9 1.9 6.7 2.5 12 2.5 20.5 0 33.4 6.4 33.4 16.5 0 4-1.2 5.4-12 14.5-10.5 8.7-15.2 11.5-22.6 13.5-8.2 2.1-12.3 1.9-16.9-1-5-3.1-6.7-3.2-6.3-.4.5 3.5 4.7 5.8 13.2 7 6.2.9 8 1.6 8.3 3 .3 1.1.7 1.9 1 1.9 1.2 0 10.7-7.2 18.6-14.2 13.1-11.6 15-12.8 21.8-14.4 3.4-.8 10.7-3.9 16.3-6.8 15.4-8.2 25.4-10.6 27.6-6.6 1.6 3 4.3 2.4 10-2.3 2.8-2.3 7.9-6.3 11.1-9 9.7-7.6 14.9-6.1 14.9 4.3 0 2.9.6 4.3 2.2 5.4 1.2.8 2.6 1.2 3.1.9.6-.4.8-5.7.4-14.2-.8-16.6-.4-17.8 7-19.7 7.3-1.9 11.5-4.2 20.8-11.4 11.9-9.3 19-12.4 29-12.4 10.6-.1 16 2.8 19.9 10.6 3 6 3.2 10.3 1 17.9-2.6 8.6-4.9 12.5-8.6 14-4.6 1.9-8.7 1.6-24.6-1.7-11.9-2.4-14.6-2.7-20.6-1.8-3.8.5-7.1 1.4-7.3 2-1.1 3.4 23.8 8.5 42.7 8.8 12.2.1 14 .4 18.4 2.7 2.7 1.3 6.3 4.2 8 6.3 2.8 3.4 3.1 4.5 3.1 10.6 0 8.5-1.1 9.8-11.3 14.1-11.5 4.8-24.4 7.7-50.9 11.4-25 3.6-44.8 7.4-50.5 9.8-3.2 1.4-10.8 8.8-10.8 10.6 0 4.3 12.8 3.9 26.9-.8 8.9-3 9.9-3.1 36.9-4.1 28.4-1 36.3-1.8 49-4.4 22.1-4.7 33.2-2 33.2 8 0 6-4.8 8.3-23 11-13 1.9-18.6 3.7-22.2 7.1-3.6 3.4-3.5 4.9.4 6.9 4.1 2.1 8.6 1.4 18.5-3.2 4.3-1.9 9.6-3.9 11.9-4.4 6.8-1.5 17.4 2.6 11.5 4.5-2.7.8-12.7 11.8-15.1 16.5-2.3 4.5-2.6 8-.6 8 1.8 0 7.4-3.9 11.8-8.4 2.9-2.9 4.4-3.7 6.5-3.4 4.3.5 5.6 5.5 6.1 24.3l.4 16 3.1 3.3 3.2 3.3.6 15.7c.6 15.1.7 16 4.2 24.5 2 4.8 5.2 11.1 7.2 13.8 2.7 3.9 4.5 8.3 7.5 19.2 4.6 17 6.5 26.8 5.6 29.2-1.1 3-12.8 1.6-21.8-2.7-12.1-5.8-17.7-12.2-16.2-18.3.4-1.8-.3-4.4-2.5-8.8-5.8-11.6-9.5-14.2-7.1-5 3.8 15.3 3.3 20.3-2.3 20.3-5.7 0-9.6-2-20.5-10.3-5.7-4.3-12.3-8.7-14.6-9.8-3.2-1.4-4.9-3-6.8-6.6-4.4-8.1-7-18-7.1-26.9-.1-7.4.2-8.7 3.5-15.5 5.2-10.6 11.2-32.8 9.4-34.7-1.2-1.2-4.3 3.4-7 10.6-1.7 4.5-4.4 8.7-8 12.7-6.1 6.8-7.4 6.7-9.6-.9-1.9-6.8-4.5-10.4-7.7-10.8-4.4-.5-4.3-5.8.1-15.7 3.6-7.9 4.5-12.4 2.6-13.6-2.3-1.5-5.1 1-8.2 7.3-5.6 11.3-9.4 11.5-26.1 1.3-13.4-8.3-16.8-9.4-43.3-13.1-12.9-1.9-18.2-5.5-20.8-14.3-.4-1.2-1.6-1.7-4.5-1.7s-7.1-1.5-14.8-5.5c-11.1-5.7-12.3-6.1-12.3-4.6 0 2.5 6.7 8.9 11.8 11.2 6.8 3.1 12.2 7.9 12.2 10.8 0 3.5-3.5 4.5-12.9 3.6-8.9-.8-9.7-.8-22.8-.5-6.1.2-10.4-.5-19.4-2.9-6.4-1.7-13.6-3.1-16.1-3.1-5.4 0-11 1.8-10.5 3.4 1.6 5.3 31.5 10.3 54.7 9.1 11.3-.6 13.7-.4 25 2.1 9.7 2 16.7 2.8 31 3.4 21.2.8 24.1 1.6 38.1 10.2 4.6 2.8 11.3 6.7 14.9 8.7 8.9 5 12.6 10.3 19.5 28 7.5 19.2 8.2 21.8 6.9 23.9-1.7 2.6-5.4 2.6-17.1-.5-8.4-2.1-12.4-2.6-18.3-2.3-13.4.6-21.2.4-37.7-1-17.2-1.4-16.9-1.4-36.9 3.2-6 1.3-10.7 0-12.6-3.6-.7-1.1-1.5-7.3-1.8-13.6-.4-6.3-1.2-12.6-1.9-13.9-1.3-2.4-1.3-2.4-15-1.8-19 .8-29.4 4-37.1 11.2-3.4 3.3-3.7 3.3-8.5 2.4-7.7-1.4-11.8-3.4-24.9-11.8-6.7-4.2-15.6-9.7-20-12.2-10.1-5.6-15.9-10.8-18.6-16.4-1.9-4-2.1-5.6-1.6-12.3 1.7-19.5 1.8-21.2.7-21.2-.6 0-1.1 1-1.1 2.2 0 1.3-1.4 7.2-3 13.3-3.8 14-3.8 17.7 0 24.8 5.4 10.1 3.3 10.4-6.1.9-7.2-7.4-10.9-12.7-12.8-18.3-1.5-4.6-9.1-16.9-14.2-23-4-4.8-15.2-13.9-17.1-13.9-.5 0 1 2.3 3.4 5.1 12.1 14.2 14.2 19.3 9.4 22.5-2 1.2-4.2 1.4-11.3 1-4.8-.3-17.1-.9-27.3-1.3-20.6-.9-22.4-1.4-26.2-7.9l-2.1-3.5-2.3 2.2c-3 2.8-3 4-.1 6.6 5.8 5.3 12.6 7.1 31.2 8.3 15.1.9 35.8 3.9 44.3 6.5 6.7 2 11.8 6.5 14.6 12.9 2.8 6.1 9.8 12.9 16.9 16.1 2.9 1.3 10.6 4.3 17.2 6.6 14.7 5.1 15.4 5.4 28.6 14.4 10.7 7.3 19.7 11.5 24.7 11.5 3.9-.1 9.9-3.1 16.2-8.2 7.4-6 11.1-7.8 16.3-7.8 6.8 0 10.1 1.6 12.7 6.1 5 9.1 1.6 19.6-9.7 30.3-3.6 3.3-11 10.5-16.3 15.8-10.5 10.6-16.8 14.4-21.9 13.3-1.6-.3-4.8-2.4-7.2-4.6-11.1-10.3-37.6-29.2-44.2-31.5-2.3-.8-5.3-2.2-6.6-3.1-2.8-1.8-23.1-3.2-23.1-1.6 0 .6 1 1.3 2.2 1.6 4 1.1 1.4 1.4-5.2.7-8.6-1-53 .1-53 1.2 0 .5 2 1.8 4.5 2.9 4.1 1.8 6.3 2 22.1 1.7l17.6-.3 2.4 2.8c1.3 1.5 2.4 3.7 2.4 4.8 0 2.3-.9 2.3 9.7-.2 4.8-1.2 12.4-2.2 16.8-2.3 9.5-.1 13.7 1.9 17.3 8.3 1.8 3.2 3.7 4.7 9.5 7.5 4 1.8 9.2 4.1 11.7 5 10.3 3.6 13.5 7.6 11 13.5-1.1 2.9-1.1 2.9-12.3 3.3-9.8.5-13 1.1-25.2 5.1-7.7 2.4-15.4 4.8-17.2 5.1-3.7.8-14.1-.4-35.8-4.4-8.8-1.6-20.1-3.4-25-3.9-5.4-.7-13.8-2.7-20.8-5-15-5.1-19.8-5.8-22-3.6-1 .9-1.7 2.3-1.7 3 0 1.7-1.2 2-12 3.5-19.4 2.6-28.5 4.2-29.3 4.9-2.8 2.8 11.1 3.7 24.3 1.6 32.3-5 30.8-4.8 44.5-3.7 9.2.8 18.4 2.5 31.5 5.7 10.2 2.6 22.1 4.9 26.5 5.2 12.3.9 17.5 4.7 17.5 12.8 0 8-6.3 12.9-16 12.3-3.2-.1-6.1 0-6.5.3-.3.4.8 1.8 2.5 3.3 2.4 2 4.2 2.6 7.9 2.6 5.4 0 7.8-2 12.6-10.5 1.5-2.8 6.2-8.4 10.5-12.6 12.5-12.3 15.8-13.1 51-11.8 11.6.5 15-1 28-11.4 4.7-3.8 10.2-7.8 12.2-9 2-1.2 4-3.2 4.3-4.4.3-1.3 1.9-3.9 3.7-5.8 4.1-4.7 8.2-4.6 11.5.4 3.4 5.1 3.2 12.7-.7 20.3-1.6 3.2-3 6.3-3 6.9 0 3.7 4 8.5 11.5 13.9 8.5 6.2 14.5 12.1 14.5 14.4 0 .9 2.5 1.5 8.8 1.9 4.8.4 11.3 1 14.5 1.3 3.6.4 5.7.3 5.7-.3 0-1.5-9-5.6-18-8.3-15.3-4.6-18.9-7.2-21-15-2.2-8 1.7-15.3 9.9-18.9 2.8-1.2 5.5-3 6-4 1.1-2 0-7.3-2-9.7-1-1.2-.9-1.8.4-3.1 1.5-1.5 6.5-1.7 47.4-1.7 34.7-.1 46.8.2 50 1.2 3.6 1.1 5.4 2.7 11.4 10.5 4 5.1 9.9 13.2 13.2 18.2 3.3 4.9 7.2 10.4 8.6 12.1 1.4 1.7 3.4 4.5 4.3 6.3 1.6 3 2 3.1 8.1 3.1 7.4 0 10.7 2.2 10.7 7 0 6-5.5 8.2-12.5 5.1-2.6-1.2-5.8-2.1-7-2.1-1.3 0-8.3-3.1-15.7-6.8-14.8-7.7-21.9-9.9-26.1-8.3-5.9 2.3-2.4 5.9 14.1 14.5 6.2 3.2 12.3 7.2 13.7 8.7 4.9 5.9 19.2 17.1 26.2 20.6 6.4 3.2 8.1 3.6 15 3.6 5.8 0 10.1-.7 16.5-2.7 9.9-3.1 12.4-3 20.2 1.2 6.9 3.8 14.9 13.1 20.1 23.7 4.2 8.4 4.5 9.7 5.1 19.5.5 9 .2 13.1-2.5 29-4.6 26.9-4.4 26-12.5 41.5-2.7 5.1-2.7 5.4-2.3 21.9.3 9.2-.7 9.3-16.6 1.3-7.4-3.7-14.1-6.7-14.9-6.7-2.1 0-27.6-11.2-36.4-15.9-7.6-4.1-24.6-16.8-33.8-25.2-3-2.7-7.1-7.4-9.1-10.4-6.1-9.2-16-13.5-31.4-13.5-15.6 0-28.3 4.9-40.4 15.8-10.6 9.6-13.1 10.6-22.6 9.8-9.5-.9-16.7-4-21.1-9.3-3.2-3.8-14.6-23.6-19.2-33.3-1.1-2.5-3.7-11-5.6-19-1.9-8-3.9-15.8-4.5-17.3-1.6-4.6-1.8-2.4-.2 2.9 2 6.6 1.9 9.3-1 20.4-3.8 14.7-3.6 16.5 3.3 25.2 3.3 4 7.1 9.4 8.5 11.9 5 8.5 3.3 8.9-7.8 1.9-7.5-4.7-11.5-6.2-11.5-4.1 0 .5 4.2 4.7 9.3 9.2 5 4.6 12.1 11.3 15.7 14.9 3.6 3.6 7.8 7.4 9.3 8.4 1.5.9 3.3 2.9 4 4.3.9 2.1.8 2.7-.8 3.9-3.9 2.9-15.9 1.1-20-3-1.4-1.4-3.5-2.2-6.3-2.3-4.9-.2-12.1-3.6-20.9-9.9-6.6-4.7-7.7-4.3-4.2 1.5 2.5 4.2 1.3 5.4-4.5 4.6-5.8-.9-8.5-3.4-14.6-13.5-6-10-9.4-13.1-14.3-13.4-2.9-.1-3.2.2-3.5 3.1-.3 2.8.7 4.3 8.2 12.2 4.7 4.9 8.6 9.6 8.6 10.3 0 2.5-1.5 3.6-9.1 7.1-8.2 3.7-10.5 5.7-6.7 5.7s17-4 21.5-6.5c3.9-2.1 4.5-2.2 9.8-1 3.1.8 6.2 1.9 7 2.5.8.6 1.8.9 2.3.7.4-.3 1.4-.2 2.1.3 1 .6.3 1.5-2.9 3.5-2.3 1.4-3.9 2.9-3.6 3.2.3.3 3.9 0 8-.7 7.2-1.2 7.5-1.2 19.8 2.4 18.2 5.3 26.3 4.9 33.8-1.9 1.4-1.2 11.1-5.8 21.5-10.3 36.4-15.6 42.9-16.9 55.1-10.7 3.8 1.9 10.2 6.1 14.1 9.4 4 3.3 8.6 6.2 10.3 6.6 1.6.4 4.1 2.1 5.6 3.8l2.6 3.1-.7 12.4c-.8 14.1.1 16.7 5.7 17.6 1.8.3 7.8 1.3 13.3 2.2 11.6 1.9 21.1 5.2 26.7 9.3 2.1 1.6 6.5 6.4 9.7 10.7 3.1 4.4 10.8 14.2 17 21.8 6.2 7.7 12.1 15.6 13.1 17.7 1.1 2.1 5.8 7.9 10.5 12.9s9.7 11.5 11.2 14.3c2.9 5.7 2.8 4.1 5.3 72.2.6 15.4 1.6 39.9 2.2 54.5 1.5 33.6 1.3 42.3-1.2 57.3-1.2 6.7-2.5 17.4-2.9 23.7-.7 9.3-1.3 12.5-3.4 16.6-3.3 6.5-12.1 14.5-20 18.3-13.8 6.6-54.3 16.4-95.3 23.1-13.7 2.2-31 5.7-38.4 7.6-15.8 4.2-19.8 5.2-26.5 6.6-2.7.5-28.6 1.4-57.5 1.9-66.5 1.1-97.9 2.3-110.3 4.3-5.5.9-16 2.1-23.5 2.7-7.6.6-22.2 1.9-32.7 3-10.4 1-23.7 2.1-29.5 2.4-5.8.4-18.1 1.7-27.5 3-9.3 1.3-21.7 2.8-27.5 3.5-5.8.6-15.9 2-22.5 3-14 2.2-23.2 3.4-37 5-5.5.6-11.5 1.3-13.3 1.6l-3.2.5v17.9h1280v-51.8l-11.2-.6c-39.4-2.1-56.4-2.7-90.3-3.1-20.9-.2-46.5-.7-57-1-31.9-1.1-148.5-2.8-193-2.9-23.1-.1-57.2.5-75.7 1.2-35.1 1.4-35 1.4-63-2.4-14.7-2.1-30.4-6-35.4-8.9-8-4.7-22.3-16.5-29.4-24.4-5.8-6.4-9-8.9-15.3-12.2-9.4-4.9-15.2-9.8-16.6-14.2-1.7-5.1-5.4-39.5-7.1-65.7-3.3-50.9-4.1-72-4.9-125.2-.9-59.1-.7-66.9 2.5-79.5 5.2-20.9 13.6-33.4 29.1-43.6 9.4-6.2 15.3-11.7 25.6-23.9l4.7-5.7 3.3 1.8c9.7 5.7 19.9 2.2 39.5-13.4 3.5-2.8 5.2-3.5 8.9-3.5 6.5 0 10.5 2.3 18.2 10.7 6.4 6.9 7 7.3 7.6 5.2 1.5-4.6.7-12.8-1.4-16.3-2.6-4.1-5.4-6.1-11-7.6-5.8-1.5-13.7.8-18.6 5.4-4.5 4.3-8.3 5.3-12.4 3.1-4-2-6.5-5.9-6.5-10.1 0-4.3 2.1-6.5 8.1-8.4 4.4-1.4 5-2.1 11.2-12.3C798.3 737 810 724.9 810 730c0 .5 1.1 1.7 2.4 2.5 4.9 3.2 8.7-.7 16.4-16.7l4.2-8.7 6.8-2.2c4.2-1.4 10.4-2.4 16.5-2.7 12-.5 16.9 1 24.2 7.8 8.9 8.4 9.2 8.5 33 8.6 11.6.1 21.9-.2 23.1-.7 3.5-1.2 8-6.4 12.7-14.6 8.1-14 15.1-19.1 27.8-20 8.1-.7 12.4.6 17.1 5.1 6 5.7 18.1 7 26.1 2.9 4.9-2.5 2.7-3.8-7.4-4.3-7.4-.4-10.2-1-13-2.8-9.2-5.7-6.5-17.4 5.1-22.5 2.5-1.1 7.7-3.9 11.5-6.3 8.9-5.4 14.4-7.4 20.9-7.4 7.3 0 10.8 2.5 15 10.7 4.8 9.6 12 18.8 18.5 23.6 3.1 2.3 5.8 4.5 5.9 5 1.5 3.2 16.9 7 24.2 6 7.9-1.2 7.2-4-1.8-6.8-3.1-1-6.6-2.6-7.7-3.5-1.1-1-6.2-4.1-11.4-7-11.2-6.3-16.4-11.3-18.6-18.1-1.8-5.2-2.2-11-1-12.8 1.9-3.1 7.4-4.5 21-5.2 19.7-1.1 28.6-2.3 42.8-5.8 6.7-1.7 15.5-3.3 19.4-3.7l7.1-.7 3-9.6c1.7-5.3 3.4-11.1 3.7-12.9 1.1-5.5-1.9-3.9-7.2 3.8-5.9 8.6-9.2 10.4-22.2 12-5.2.7-11.2 1.8-13.4 2.6-5.9 2.1-17.9 1.8-20.7-.4-1.7-1.4-2.1-2.5-1.7-4.3 1-4 11.7-15.5 18.7-20.2 3.6-2.4 9.8-6.7 13.9-9.5 4.5-3.2 8.5-5.2 10.2-5.2h2.7l-.5-12.3c-.6-15.3 1.9-41.1 4.2-43.7 2.1-2.3 8.1-4 14.2-4 5.1 0 8.3-2 8.3-5.1 0-2.8 3.6-7.8 8-11.1 2.5-1.9 9.2-6.5 15-10.3 12.6-8.3 23.2-18.5 19.2-18.5-.5 0-3.4 2.7-6.5 6-3.9 4-6.5 6-8.1 6-2.9 0-3.9-2.1-2.5-5.6.5-1.5.7-2.9.4-3.2-.2-.3-6.7 5.7-14.2 13.3-23 23.1-22.2 22.5-31.7 22.5-7.7 0-11.4 1.4-12.3 4.8-.3 1.3-.2 5.9.2 10.1 1.1 10.2.8 17.5-1.1 24-3.8 13.4-8.1 13.6-11.3.6-.6-2.2-2.2-7.2-3.5-11-3.2-8.7-3.4-17.2-.6-23.3 1.2-2.7 2.5-4.2 3.8-4.2 2.2 0 6-2.6 5-3.5-.3-.4-2.1.1-3.9 1-2.7 1.4-3.9 1.5-7 .6-3.4-1-9.9-7-9.9-9.1 0-3.7 6.4-8 12-8 6.4 0 4.2-5.7-3.4-8.8-4.6-1.8-7.5-7.2-7.7-14.2 0-2.5-.4-5.6-.8-6.8-.6-2.3-.7-2.3-2.2-.5-2.7 3.1-2.8 4.9-.4 9.9 4 8.4 4 11.1.5 17.8-3.7 6.8-3.7 5.9 2.1 27.6 2.1 8 4.1 18.2 4.5 22.7.8 9.1 1 8.8-7.1 9.5-4.7.5-4.5 3.4.4 4.2 2.2.3 4.2 1 4.6 1.6.3.5-.7 3.2-2.2 6l-2.8 5.1 2.7 2.3c1.5 1.3 3.2 2.6 3.8 2.8.7.2.5 2-.5 5.6-1.2 4-3 6.7-6.8 10.5-8.2 8.2-25.5 22.5-35.6 29.5l-5.4 3.7h-26.2l-9.8 5.3c-10.7 5.7-14.3 6.3-17.4 2.9-2.4-2.6-6.3-11.1-6.3-13.8 0-2.8 3.5-4.1 12.8-4.7 6.8-.4 8.9-.9 11-2.7l2.6-2.2-1.7-4.4c-.9-2.5-3.5-6.8-5.6-9.7-5.1-6.7-6.1-12.2-3.3-18.4 2.4-5.4 7-9.4 12.5-10.8 2.9-.8 5.4-2.4 7.9-5.3 2.1-2.3 3.4-4.3 2.9-4.5-.4-.1-5 1.9-10.1 4.5-7 3.5-10.6 4.8-15 5.1-5.4.4-5.9.2-8.8-2.9-2.9-3.1-3-3.5-2.5-10.3.4-5.6.2-7.4-.9-8.4-3.2-2.6-6.8 1.7-6.8 8.3 0 1.9 2 8.5 4.5 14.7 2.5 6.2 5.1 14.2 5.7 17.8 1 5.9.9 7-.8 10.6l-1.9 3.9-7.4.2c-12.8.4-14.5 3.7-9.6 19 6 18.7.9 29-18.9 38.3-7.8 3.7-11.3 6.1-15.6 10.5-19.4 20-37.2 26.9-51.6 19.8-6.8-3.3-19.6-16.4-21.4-21.8-2.7-8.3 1.6-18.3 12-27.6 7.8-7 9.3-10.2 9.3-19-.1-6.8-2-11.3-5-11.7-2.8-.4-5.5 2.6-9.3 10.5-1.7 3.6-6.1 10.8-9.9 16.2-3.8 5.3-8.2 12.3-9.9 15.6-5.6 11.3-15.3 19.8-28.4 25.1-3.4 1.4-7.2 3.9-8.6 5.6-2.8 3.3-11.3 7.8-14.9 7.8-1.3 0-3.2-.9-4.4-2.1-2.9-2.9-2-6.5 4-16.4 10.1-16.6 15.8-34.5 10.9-34.5-3.5.1-18.6 26.2-20.2 35-.8 4.2-7.1 19.1-10.2 24-3.9 6.3-8 9.3-12.6 9.6-3.3.1-4.6.7-6.1 3-5.4 7.8-14.4 15.4-18.2 15.4-2.8 0-3.5-1.7-3.5-8.5 0-2.9-.8-7-1.7-9.1-2.2-5.2-2.2-28.6 0-35.6 1.4-4.5 1.4-4.7-.3-3.8-2.9 1.6-5.7 5.7-7.5 11.1-2.5 7.4-1.8 20.8 1.5 27.4 4.7 9.6 2.7 22.1-4.9 30.8-3.6 4-14.7 11.3-22.6 14.8-5.2 2.3-29.3 10.9-30.6 10.9-.4 0-.9-1.5-1.1-3.3-.3-1.7-1.7-7.2-3.1-12-2.7-9-5.4-29.9-4.3-34 .9-3.7 17.6-20.7 29.2-29.8 5.9-4.6 16.1-13.5 22.7-19.7 15.5-14.8 29.5-26.4 37.9-31.4 5.7-3.4 8.1-4.2 15-4.9 10.4-1.2 19.1-3.9 29.2-9.2 8.4-4.5 28.2-18.9 38.3-28 9.8-8.8 10-8.8 52-24.8 10.4-4 9.4-6.9-2.6-6.9-9.4 0-19.5 1.7-24.4 4.2-2.1 1-10.2 4.5-18 7.7-7.8 3.3-17.3 7.3-21.1 9.1-8.8 4-18.2 6.4-36.6 9-19.5 2.9-39.3 8.1-52.2 13.7-6.5 2.9-8.1 2.6-10.3-1.7-1.4-2.8-1.4-3.3.1-6.5.9-2 4.5-6.1 8-9.1 3.5-3.1 7.8-7.9 9.5-10.8 4.6-7.4 12.2-17 21-26.1 6-6.3 8-9.2 9.4-13.5 5.7-17.8 13.3-23.9 28.3-22.7 13 1.1 32.6 6.7 48.5 13.9 11 5 17.6 6.8 24.7 6.7 6.1 0 6 0 28-9.2 37.3-15.6 34.4-14 37.1-20.2.9-2.2 2.5-9.1 3.4-15.4 1.9-13 2.7-15.6 5.9-19.1 1.3-1.4 3.8-5 5.6-8 4.7-7.8 11.4-16.4 19-24.3 6.1-6.5 6.5-7.2 6.5-11.5 0-3.5-1.2-7.3-4.8-14.9-4.8-10.1-6.2-15.6-7.4-27.9-.7-7.7 1.2-12.1 7.5-17.2 2.5-2 6.9-5.8 9.7-8.4 3.4-3.2 9.5-6.8 18.8-11.3 16.5-8 20.7-11 32.6-23.7 9.8-10.4 13.8-13.3 20.4-15.3 3.7-1.1 4.5-1.9 7-6.9 3.6-7.3 4.5-11.6 2.4-11.6-1.5 0-8.7 5-13.7 9.5-1.4 1.2-4.1 2.5-6.1 2.9-2 .4-7.2 2.8-11.5 5.5-4.4 2.7-9.8 6.1-12.2 7.6-2.4 1.5-5.8 2.9-7.7 3.2-4 .6-4.5-.1-7.5-11.2-1.1-4.3-2.6-8.7-3.1-9.8-1-1.8-1.2-1.8-2.7-.3-1.3 1.3-1.7 3.9-1.9 11.9-.1 5.6-.2 11.2-.3 12.4 0 3.7-5 8.3-14 12.8-7.8 3.9-14 9-14 11.6 0 2.3-2 .5-4.1-3.9-2.4-5-2.5-7.6-2-43.7.3-16.4 3.8-54 5.6-59.5.9-2.5 4.2-8.8 7.5-14 3.3-5.2 6.8-12 7.7-15 4.5-15.4 11.7-38.3 14-44.3 2.2-5.9 2.3-7.2 1.3-9.7-1.5-3.6-2.9-3.8-5.7-.8-4.8 5.3-9.8 18.2-11.8 30.3-2.4 14.8-7.4 28.5-10.5 28.5-.6 0-1.8-1.7-2.7-3.8-1.3-3.1-1.4-4.9-.4-11.7.6-4.4 1.6-16.4 2.1-26.6 1-18.6 1.4-21 7.4-41.9 2.4-8.5 2.1-16-.9-20.1-4.3-6-9.5-13.9-9.5-14.6 0-.9-3.3-3.2-4.7-3.3-2.4 0-1.3 4 3.7 14 4.6 9.1 5 10.6 5 17 0 4.8-1.2 11.6-3.9 22.2-2.2 8.4-4.4 20.2-5.1 26.3-.6 6-1.8 15.3-2.6 20.5-1 6.1-1.4 14-1.2 21.9.3 10.6.1 12.5-1.4 13.4-2.6 1.7-8.9-.7-14.2-5.4-7.7-6.8-8.1-8-7.6-26.4.7-28.3.5-31.7-1.5-35.5l-1.9-3.5-.7 3.5c-.4 1.9-.9 16.1-1 31.6-.4 33.1-.9 31.2 12.1 41.4 9.8 7.6 11.2 10.3 9.7 18.1-1.1 5.5-1.9 6-3.5 2.4-.6-1.4-1.7-2.5-2.3-2.5-.9 0-1 3-.3 12.2 1.4 20.2 1 28.2-1.9 40.1-4.9 19.9-5.1 22.3-2.3 36 4.3 20.8 6.9 47.8 6.3 66.7-.5 18.2-1.7 23.2-6.7 27.3-5.9 4.7-19.6 29.7-23 41.9-2.5 9.3-6.2 14.5-12.9 18.5-9.7 5.8-16.9 7.6-28.4 7.1-12.2-.5-17.8-2.4-30.9-10.1-12.1-7.2-15.4-10-18.2-15.6-4.3-8.5-4.2-16.6.3-21.5 1-1.2 2.3-4.9 3-8.6 2.1-12.6 9.5-18.7 26.1-21.5 10.8-1.8 21.3-6.3 27.6-11.9 2.7-2.3 5.9-6.8 9-12.8 2.6-5.1 9.1-15.9 14.6-23.9 5.4-8 9.8-15.1 9.8-15.7 0-1.8-5-3.4-8.5-2.8-1.7.4-4.7 2.3-6.7 4.4-4.3 4.4-11.2 16.8-13.3 24-2.8 9.5-11 13-18.6 7.9-4.8-3.2-7.3-8.7-7.1-16.2.1-7.7 2.7-14.6 8.6-23 5-6.9 9.6-15.9 9.6-18.7 0-4-2.4-2.3-9.4 6.6-4.2 5.2-9.6 11.1-12.1 13.2-7.6 6.2-10.2 13.6-8.1 22.8 1.6 6.7 3.5 10.2 9.2 16.7 10 11.7 8 14.5-12.7 18.5-4.8.9-10.4 2.7-12.5 4-9 5.4-11.9 6.6-16 6.7-8 .1-11-4.9-9.9-16.7 1.2-12.8.6-22.1-2-36.1-2.3-12-3.6-17.3-7.9-32.5-1.8-6.4-2.1-17.8-.5-23.5 1.3-4.5 6.8-10.5 9.6-10.5 1.1 0 2.8-.9 3.9-2.1 2.2-2.4 9-6 14.9-7.9 9.8-3.1 15.5-7.2 17-11.9.6-2.1.5-2.3-1.1-1.7-1.1.5-4.4 1-7.4 1.3-9.2.9-10.2-2.8-3.6-12.4 2-3 4.3-8.3 5.6-13.1 2.8-10.4 7.5-18.3 14.8-24.9l5.7-5.2-.1-6.3c-.1-3.5-1-10-1.9-14.5-1.6-8.1-1.8-12.2-1.5-31.8.2-9.8-.8-16.4-4.9-35.4-1.2-5.2-2.1-11-2.1-12.9 0-4.3-2.1-3.8-3.3.7-.5 2.1-.4 4.5.3 6.7 1.6 4.8.6 9.4-3.1 14-3.9 4.9-5.9 8.7-5.9 11.2 0 1.1 1.5 4.2 3.4 7 6.3 9.1 6.9 17.5 2.4 34.7-1.1 4.4-2.1 11.4-2.2 15.5-.1 8.9-2 10.4-5.6 4.5-5.9-9.5-11-5-11 10 0 6.6-5 28.2-10.1 43.8-3.7 11.1-7.2 15.9-14.6 19.9-6.7 3.7-11.9 4.4-16.3 2.1-1.9-1-4-2.9-4.6-4.3-2.2-4.6-8.6-33.3-9.5-42.9-2.4-23.7-2.8-19.8 3.9-36.6 1.2-3 1.6-7.7 1.7-19.5 0-14.8.1-15.8 2.8-22 6.7-15.3 6.9-16.5 7.3-33 .1-8.5.7-18.2 1.3-21.5 1.2-6.7 1.4-20.5.5-25.4-.9-4.4-4-5.9-6.7-3.3-1.6 1.7-2.2 4.2-3 13.4-.5 6.2-1.3 12.3-1.8 13.5-1.3 3.4-4.3 2.8-7.6-1.3-7-8.9-10.8-11.8-23.8-18-13.5-6.4-15.5-6.7-15.5-2 0 3.1 3.1 5.6 12.8 10.6 8.7 4.5 12.2 7.8 12.2 11.5 0 3.1 3 6.6 10.3 11.8 11.9 8.5 12.2 11.1 1.6 12.3-7.4.8-7.5 2-.9 9.8 5.6 6.5 7.2 9 6.3 10-1.3 1.3-8.1.5-17-2.1-13.7-4-14.5-2.2-4.6 10.8 2.8 3.5 5.7 7.8 6.6 9.4 2.3 4.5 3 14.9 1.7 24.5-.7 4.7-1.9 14.2-2.9 21.2-1.9 14.4-3.2 17-7.6 15-1.4-.6-10-8.3-19.1-16.9-16.5-15.7-24.7-22.3-33.4-26.8-2.5-1.3-6.8-4.7-9.7-7.7-8.1-8.4-19.1-23.8-20.9-29.3-3.6-10.8-9.9-20.5-13.4-20.5-2 0-3.2 4.3-2.5 8.7 1.2 8.1 1.4 11.3.8 11.3-.5 0-3.3-2.1-6.3-4.6-6.6-5.4-14-9.4-17.5-9.4-5.8 0-8.5 4-4.7 7.2.9.8 5.5 3.5 10.1 5.9 4.7 2.4 9.9 5.9 11.5 7.7 1.7 1.8 4.4 4.5 6.1 6 11.7 10.7 18.5 17.7 23.1 23.9 5.7 7.6 6.4 8 26.4 17.1 3.6 1.6 7.9 4.4 9.5 6.2 1.7 1.8 8 8.5 14.1 14.9 12 12.6 14.2 15.5 16.7 21.7.8 2.2 5.4 13 10.2 23.9 7 15.9 9.9 21.5 15.1 28.3 7.1 9.2 10.6 15.5 12.3 21.7 1.7 6.5 4 37.4 4.6 61 .2 12.1.9 24.7 1.4 28 .5 3.3 1.7 10.7 2.5 16.5.9 5.8 2.2 12.1 2.8 14 1.8 5 1.4 20.6-.5 25.2-2.7 6.5-3.8 5.4-8.8-8.9-12.5-35.3-12.4-35.1-11.8-47 .2-4.1-4.2-9.7-11.6-14.8-7.4-5.1-8.4-3.7-3.4 4.5 8.3 13.9 15.7 44.7 13 54.7-1.2 4.6-4.4 7.5-7 6.6-4.3-1.5-8.3-7.6-9.5-14.6-.4-2-1.8-5.9-3-8.5-1.3-2.6-4.5-9.9-7.1-16.2-2.5-6.3-5.6-13.1-6.7-15-2.2-3.8-5.3-13.9-8.8-29-1.2-5.2-3.8-14.7-5.8-21-3.2-10.5-4-11.9-8.6-16.5-3.8-3.8-7.2-5.9-13.1-8.4-4.4-1.7-8.9-3.6-10.1-4.1-2.9-1.2-10.5-11.6-16-21.9-2.6-4.7-5.9-10.6-7.3-13.1-4.6-7.6-5.2-10.8-6.1-29-.6-12.3-1.4-18.8-2.6-22-.9-2.5-1.8-7.7-1.9-11.6-.2-8-.8-9.4-3.6-9.4-2.4 0-7.9 5.1-7.9 7.3 0 .8 1.8 3.2 3.9 5.4 6.5 6.4 7.1 11.3 4.4 32.1-1.6 12.3-1.9 13.3-4 13.8-3.9 1-7.9-1.5-12.3-7.7-2.3-3.2-4.5-5.9-5-5.9-1.1 0-3 6.5-3 10.2 0 4.4-2.6 6.1-8.4 5.5-4.8-.4-5.4-.8-13.6-9.5-6.7-7.2-9.3-9.3-12.5-10.1-8.6-2.2-11.4-6.5-14.5-22.7-1.2-6-3.3-13.4-4.7-16.4-5.6-12.2-6.5-19.4-6.8-50.5-.1-26-.6-30.5-4.2-38.8-3.1-7.3-7.8-2.9-5.5 5.1 2.4 8.5 3.4 19.6 3 33.2-.3 11.1-.8 14.4-2 15.7-.9.9-2.3 1.3-3.1 1-.8-.3-3.8-5.3-6.6-11-5.1-10.5-6.6-12.2-9.1-10.7-1.7 1 1.1 8.1 8.1 20.6 7.5 13.2 13.9 27 13.9 29.9 0 1.4.6 3.8 1.4 5.3 2.9 5.7 2.9 7.1.2 8.2-3.3 1.2-3.3 3.9-.2 8.8 1.4 2 4.3 8 6.6 13.2 5.6 13.1 9.7 18.4 16.8 21.8 3.1 1.5 8.6 5.2 12.2 8 10.8 8.7 15.4 10.4 30.1 11.1 11.5.6 12.9.8 16.7 3.4 9.5 6.2 13.1 16.2 7.6 20.6-3.6 2.8-10.6 2.7-22.2-.3-5.1-1.3-9.4-2-9.7-1.6-.5.9 8.5 9 12.1 10.8 4 2.1 11.8 2.3 20.4.7 4.7-.9 11.1-1.8 14.2-2.2 5.4-.5 5.8-.4 6.7 1.9.5 1.3 6.6 9.5 13.5 18.3C707.1 365.1 709 368 709 371c0 6 1.9 10.7 7.7 19.1 7 10.3 8.3 13.5 8.3 20.3 0 12.2 2.4 20 13.4 42.6 13.1 27 14.7 33.4 10.7 41.3-1 2-4.2 5.8-7.1 8.4-4.2 3.8-6.2 6.9-11.2 17.2-3.3 6.9-7.5 14.6-9.3 17.1-1.8 2.5-6.2 10-9.8 16.8-3.7 6.7-9.5 15.8-13 20.1-6.2 7.6-16.6 22.7-22.1 32.3-5.3 9.1-16.9 19.8-21.6 19.8-2.3 0-4-4.2-4-9.9 0-4.4.4-5.2 3.8-8.1 2-1.7 5.9-4.6 8.7-6.3 7-4.5 9.5-8.6 9.5-15.6 0-7.3 3.2-14 10.9-23.4 3.2-4 6.9-9.2 8.1-11.6 1.2-2.4 4.9-7.8 8.2-12 7.5-9.3 11.2-17.1 14.4-29.8 5.1-20.6 5-36.9-.1-48.2-4.6-9.9-5.6-16.2-6.4-40-.9-24.2-2.1-30.6-5.8-29.9-2.7.5-6.3 8.7-7 16-.4 5.2-.1 8.1 1.6 13.8 1.9 6.2 2.3 10.1 2.6 26.9.2 15.7.6 20.5 2 23.9 3.5 8.6 1 17.5-8.5 30.3-4.1 5.7-5.2 6.6-7.9 6.6-6.1 0-8.2 3.5-11.3 19.3-2 9.9-2.3 9.8-21.2-8.5-9.2-8.9-11.5-16.7-7.6-25.3 1.4-3.2 1.7-4.9 1-6.7-1.1-3-2.1-3.1-4.3-.7-3.7 4.1-6.7 12.6-6.7 19.2v6.4l12.9 12.6c10.7 10.3 13.1 13.1 13.6 16.2.9 4.8-.8 9.9-4.5 13.2-1.7 1.4-3 3.1-3 3.6 0 .6-2 1-4.4 1-5.9 0-7.6 2.3-7.6 10.3 0 6.3-1 7.4-5.5 6.3-1.8-.5-2.6-1.5-3.1-4.4-2.2-12.7-7.1-31.6-14.3-56.1-6.9-23.3-8.4-44.2-4.3-58.1 1.2-4.1 2.5-10.7 2.8-14.5.6-7 .2-9-4.1-20.5-2.2-5.9-2.2-18 0-33.8l1.7-12.3-2.7-4c-5.1-7.8-7.3-4.1-10 16.2-.8 6.8-1.8 13.2-2.1 14.2-.3.9-2.4 2.7-4.7 3.8-9.5 4.8-10 7.6-2.2 12 7.9 4.4 11.5 8.3 11.5 12.2-.1 4.8-1.6 11.7-2.9 13-1.7 1.7-5.6-2.7-11.2-12.5-3.4-6.1-5.2-8.4-6.9-8.6-4.6-.7-4.6 2.7 0 19.8 3.6 13.7 3.8 14.4 5 28.5 2.2 25.7 5.6 49.7 11.5 82.5l.6 3.5-3.4-3.7c-3.8-4.3-12.5-19.5-16.1-28.3-1.5-3.9-2.8-10-3.5-17.5-1.5-15.2-3.8-28.2-6.1-35.1-2.6-7.7-3.6-12.1-5.9-28.1-2.8-18.5-5-27.9-7.1-30.3-6.5-7.4-7.2-22.9-1.9-40.2 1.9-6 1.9-6.6.4-8.9-1.9-2.9-3-2.5-3.8 1.4-.3 1.5-1.4 3.9-2.5 5.2l-1.9 2.4-1.8-2.8c-1-1.5-2.8-6.7-4-11.5-1.3-4.8-3.1-10.1-4.1-11.7-2.9-4.3-2.4-14.4 1.4-28.9 1.8-6.6 3.2-14 3.2-16.5 0-6.6-2.3-16.4-7.4-31.3-2.5-7.2-4.9-15-5.5-17.2-.6-2.2-3.4-8.1-6.4-13-6.6-11.3-8.5-16-9.3-23.2-.7-5.9-3.7-13.3-5.4-13.3-3.7 0-1.6 23.6 3 33 .9 1.9 2.4 5.6 3.2 8.2l1.5 4.7-3.8 2.6c-5.9 3.8-5 5.4 4.1 7.5 8.6 2 9 2.3 9 8.3 0 2.9 1.4 10.6 3 17.2 1.7 6.6 3 12.9 3 14 0 3.3-2.8 6.4-6.4 7-7.3 1.4-13.7-5.2-18.2-18.8-1.4-4.5-3.5-9.8-4.5-11.7-1.7-3.2-6.1-16.9-9.5-29.8-.8-2.9-1.6-8.5-2-12.5-.3-4-1.1-10.8-1.9-15.2-.8-4.4-1.9-14.3-2.6-22-.6-7.7-2.4-21.7-4-31.2-4.2-25.1-4.5-29.5-2.5-34.5 1.2-3.2 2.8-5 6.3-7.2 19.6-12.1 33.3-22.9 33.3-26.2 0-1.6-3.1-3.4-5.7-3.4-.9 0-5.2 3.6-9.4 8s-8.4 8-9.3 8c-2.2 0-4.5-3.9-5.4-9.1-.4-2.4-1.2-4.2-1.7-4-.6.2-2 4.4-3.2 9.5-2.2 8.7-4.5 13.5-7.1 14.4-.6.2-2.3-.8-3.7-2.2-2.1-2.1-2.4-3-1.7-5.8.4-1.8.7-7.6.7-12.8 0-15.8-4.1-19-12.6-10l-4.7 5-2.6-2.2c-6.2-5.4-4-13.6 8-29.9 7.6-10.4 12.4-20.5 14.4-30.2 1.8-9-.3-14.4-2.8-7.3-.7 1.9-2 3.7-3 4.1-4.6 1.8-13-15.9-11.9-25.1.4-4.1.3-4.4-1.9-4.4-1.3 0-2.8.9-3.4 1.9z" fill="#2196f3"/></svg>