<svg version="1.0" xmlns="http://www.w3.org/2000/svg" width="1706.6666667" height="1436" viewBox="0 0 1280 1077"><path d="M840 .6C771 7.1 705.4 36 643.9 87.1c-59.8 49.7-108.3 116-140.4 191.9-28.5 67.5-58.7 116.6-107 174-14.7 17.5-57.9 61.4-76 77.1-71.7 62.5-155.3 115.6-246.1 156.2-19.3 8.7-50.3 21.2-65.1 26.3-4.6 1.6-8.3 3.3-8.3 3.7 0 .9 19.4 23.5 34.5 40.2C129.1 860.3 222.7 937.9 319 991.7c84.8 47.4 168.7 74.4 258.5 83.5 17 1.7 72.9 1.7 89.5 0 55-5.6 109.2-18.4 161-37.9 171.2-64.6 285-185.8 327.9-349.3 23.2-88.5 26.4-188.2 9.5-301.5-3.6-24.3-10-57.1-15.2-78.7l-2.9-11.6 66.4-45.3c36.5-24.9 66.2-45.3 66.1-45.5-.2-.1-10.6-3.2-23.3-6.9-41.4-12-55.7-16.2-80.5-23.5-34-10-63.7-18.7-75.4-22.1-5.4-1.5-10-3-10.1-3.1-.1-.2-3-5-6.5-10.8-7.8-13-17.9-27.4-28.4-40.5-9.8-12.3-33.2-35.8-44.6-44.8C976.1 26 937.6 9 895 2.5 884.8 1 849.4-.3 840 .6z" fill="#9e9e9e"/></svg>